<svg width="1363" height="163" viewBox="0 0 1363 163" fill="none" xmlns="http://www.w3.org/2000/svg">
<path d="M0 15C0 6.71573 6.71573 0 15 0H37V163H15C6.71573 163 0 156.284 0 148V15Z" fill="#424242"/>
<rect width="1097" height="163" transform="translate(37)" fill="#F0F0F0"/>
<path d="M105.973 58.2578V61H96.8906V58.2578H105.973ZM98.0391 43.9375V61H94.5234V43.9375H98.0391ZM104.789 50.8867V53.5586H96.8906V50.8867H104.789ZM105.961 43.9375V46.6914H96.8906V43.9375H105.961ZM111.188 50.9453V61H107.801V48.3203H110.977L111.188 50.9453ZM110.719 54.2148H109.781C109.781 53.332 109.887 52.5195 110.098 51.7773C110.316 51.0273 110.633 50.3789 111.047 49.832C111.469 49.2773 111.988 48.8477 112.605 48.543C113.223 48.2383 113.938 48.0859 114.75 48.0859C115.312 48.0859 115.828 48.1719 116.297 48.3438C116.766 48.5078 117.168 48.7695 117.504 49.1289C117.848 49.4805 118.113 49.9414 118.301 50.5117C118.488 51.0742 118.582 51.75 118.582 52.5391V61H115.207V52.9141C115.207 52.3359 115.129 51.8906 114.973 51.5781C114.816 51.2656 114.594 51.0469 114.305 50.9219C114.023 50.7969 113.684 50.7344 113.285 50.7344C112.848 50.7344 112.465 50.8242 112.137 51.0039C111.816 51.1836 111.551 51.4336 111.34 51.7539C111.129 52.0664 110.973 52.4336 110.871 52.8555C110.77 53.2773 110.719 53.7305 110.719 54.2148ZM118.266 53.8281L117.059 53.9805C117.059 53.1523 117.16 52.3828 117.363 51.6719C117.574 50.9609 117.883 50.3359 118.289 49.7969C118.703 49.2578 119.215 48.8398 119.824 48.543C120.434 48.2383 121.137 48.0859 121.934 48.0859C122.543 48.0859 123.098 48.1758 123.598 48.3555C124.098 48.5273 124.523 48.8047 124.875 49.1875C125.234 49.5625 125.508 50.0547 125.695 50.6641C125.891 51.2734 125.988 52.0195 125.988 52.9023V61H122.602V52.9023C122.602 52.3164 122.523 51.8711 122.367 51.5664C122.219 51.2539 122 51.0391 121.711 50.9219C121.43 50.7969 121.094 50.7344 120.703 50.7344C120.297 50.7344 119.941 50.8164 119.637 50.9805C119.332 51.1367 119.078 51.3555 118.875 51.6367C118.672 51.918 118.52 52.2461 118.418 52.6211C118.316 52.9883 118.266 53.3906 118.266 53.8281ZM131.977 50.7578V65.875H128.602V48.3203H131.73L131.977 50.7578ZM140.004 54.5195V54.7656C140.004 55.6875 139.895 56.543 139.676 57.332C139.465 58.1211 139.152 58.8086 138.738 59.3945C138.324 59.9727 137.809 60.4258 137.191 60.7539C136.582 61.0742 135.879 61.2344 135.082 61.2344C134.309 61.2344 133.637 61.0781 133.066 60.7656C132.496 60.4531 132.016 60.0156 131.625 59.4531C131.242 58.8828 130.934 58.2227 130.699 57.4727C130.465 56.7227 130.285 55.918 130.16 55.0586V54.4141C130.285 53.4922 130.465 52.6484 130.699 51.8828C130.934 51.1094 131.242 50.4414 131.625 49.8789C132.016 49.3086 132.492 48.8672 133.055 48.5547C133.625 48.2422 134.293 48.0859 135.059 48.0859C135.863 48.0859 136.57 48.2383 137.18 48.543C137.797 48.8477 138.312 49.2852 138.727 49.8555C139.148 50.4258 139.465 51.1055 139.676 51.8945C139.895 52.6836 140.004 53.5586 140.004 54.5195ZM136.617 54.7656V54.5195C136.617 53.9805 136.57 53.4844 136.477 53.0312C136.391 52.5703 136.25 52.168 136.055 51.8242C135.867 51.4805 135.617 51.2148 135.305 51.0273C135 50.832 134.629 50.7344 134.191 50.7344C133.73 50.7344 133.336 50.8086 133.008 50.957C132.688 51.1055 132.426 51.3203 132.223 51.6016C132.02 51.8828 131.867 52.2188 131.766 52.6094C131.664 53 131.602 53.4414 131.578 53.9336V55.5625C131.617 56.1406 131.727 56.6602 131.906 57.1211C132.086 57.5742 132.363 57.9336 132.738 58.1992C133.113 58.4648 133.605 58.5977 134.215 58.5977C134.66 58.5977 135.035 58.5 135.34 58.3047C135.645 58.1016 135.891 57.8242 136.078 57.4727C136.273 57.1211 136.41 56.7148 136.488 56.2539C136.574 55.793 136.617 55.2969 136.617 54.7656ZM145.664 43V61H142.277V43H145.664ZM147.914 54.7891V54.543C147.914 53.6133 148.047 52.7578 148.312 51.9766C148.578 51.1875 148.965 50.5039 149.473 49.9258C149.98 49.3477 150.605 48.8984 151.348 48.5781C152.09 48.25 152.941 48.0859 153.902 48.0859C154.863 48.0859 155.719 48.25 156.469 48.5781C157.219 48.8984 157.848 49.3477 158.355 49.9258C158.871 50.5039 159.262 51.1875 159.527 51.9766C159.793 52.7578 159.926 53.6133 159.926 54.543V54.7891C159.926 55.7109 159.793 56.5664 159.527 57.3555C159.262 58.1367 158.871 58.8203 158.355 59.4062C157.848 59.9844 157.223 60.4336 156.48 60.7539C155.738 61.0742 154.887 61.2344 153.926 61.2344C152.965 61.2344 152.109 61.0742 151.359 60.7539C150.617 60.4336 149.988 59.9844 149.473 59.4062C148.965 58.8203 148.578 58.1367 148.312 57.3555C148.047 56.5664 147.914 55.7109 147.914 54.7891ZM151.289 54.543V54.7891C151.289 55.3203 151.336 55.8164 151.43 56.2773C151.523 56.7383 151.672 57.1445 151.875 57.4961C152.086 57.8398 152.359 58.1094 152.695 58.3047C153.031 58.5 153.441 58.5977 153.926 58.5977C154.395 58.5977 154.797 58.5 155.133 58.3047C155.469 58.1094 155.738 57.8398 155.941 57.4961C156.145 57.1445 156.293 56.7383 156.387 56.2773C156.488 55.8164 156.539 55.3203 156.539 54.7891V54.543C156.539 54.0273 156.488 53.543 156.387 53.0898C156.293 52.6289 156.141 52.2227 155.93 51.8711C155.727 51.5117 155.457 51.2305 155.121 51.0273C154.785 50.8242 154.379 50.7227 153.902 50.7227C153.426 50.7227 153.02 50.8242 152.684 51.0273C152.355 51.2305 152.086 51.5117 151.875 51.8711C151.672 52.2227 151.523 52.6289 151.43 53.0898C151.336 53.543 151.289 54.0273 151.289 54.543ZM165.574 59.5703L168.938 48.3203H172.559L167.461 62.9102C167.352 63.2305 167.203 63.5742 167.016 63.9414C166.836 64.3086 166.59 64.6562 166.277 64.9844C165.973 65.3203 165.586 65.5938 165.117 65.8047C164.656 66.0156 164.09 66.1211 163.418 66.1211C163.098 66.1211 162.836 66.1016 162.633 66.0625C162.43 66.0234 162.188 65.9688 161.906 65.8984V63.4258C161.992 63.4258 162.082 63.4258 162.176 63.4258C162.27 63.4336 162.359 63.4375 162.445 63.4375C162.891 63.4375 163.254 63.3867 163.535 63.2852C163.816 63.1836 164.043 63.0273 164.215 62.8164C164.387 62.6133 164.523 62.3477 164.625 62.0195L165.574 59.5703ZM164.168 48.3203L166.922 57.5078L167.402 61.082L165.105 61.3281L160.547 48.3203H164.168ZM179.578 61.2344C178.594 61.2344 177.711 61.0781 176.93 60.7656C176.148 60.4453 175.484 60.0039 174.938 59.4414C174.398 58.8789 173.984 58.2266 173.695 57.4844C173.406 56.7344 173.262 55.9375 173.262 55.0938V54.625C173.262 53.6641 173.398 52.7852 173.672 51.9883C173.945 51.1914 174.336 50.5 174.844 49.9141C175.359 49.3281 175.984 48.8789 176.719 48.5664C177.453 48.2461 178.281 48.0859 179.203 48.0859C180.102 48.0859 180.898 48.2344 181.594 48.5312C182.289 48.8281 182.871 49.25 183.34 49.7969C183.816 50.3438 184.176 51 184.418 51.7656C184.66 52.5234 184.781 53.3672 184.781 54.2969V55.7031H174.703V53.4531H181.465V53.1953C181.465 52.7266 181.379 52.3086 181.207 51.9414C181.043 51.5664 180.793 51.2695 180.457 51.0508C180.121 50.832 179.691 50.7227 179.168 50.7227C178.723 50.7227 178.34 50.8203 178.02 51.0156C177.699 51.2109 177.438 51.4844 177.234 51.8359C177.039 52.1875 176.891 52.6016 176.789 53.0781C176.695 53.5469 176.648 54.0625 176.648 54.625V55.0938C176.648 55.6016 176.719 56.0703 176.859 56.5C177.008 56.9297 177.215 57.3008 177.48 57.6133C177.754 57.9258 178.082 58.168 178.465 58.3398C178.855 58.5117 179.297 58.5977 179.789 58.5977C180.398 58.5977 180.965 58.4805 181.488 58.2461C182.02 58.0039 182.477 57.6406 182.859 57.1562L184.5 58.9375C184.234 59.3203 183.871 59.6875 183.41 60.0391C182.957 60.3906 182.41 60.6797 181.77 60.9062C181.129 61.125 180.398 61.2344 179.578 61.2344ZM192.539 61.2344C191.555 61.2344 190.672 61.0781 189.891 60.7656C189.109 60.4453 188.445 60.0039 187.898 59.4414C187.359 58.8789 186.945 58.2266 186.656 57.4844C186.367 56.7344 186.223 55.9375 186.223 55.0938V54.625C186.223 53.6641 186.359 52.7852 186.633 51.9883C186.906 51.1914 187.297 50.5 187.805 49.9141C188.32 49.3281 188.945 48.8789 189.68 48.5664C190.414 48.2461 191.242 48.0859 192.164 48.0859C193.062 48.0859 193.859 48.2344 194.555 48.5312C195.25 48.8281 195.832 49.25 196.301 49.7969C196.777 50.3438 197.137 51 197.379 51.7656C197.621 52.5234 197.742 53.3672 197.742 54.2969V55.7031H187.664V53.4531H194.426V53.1953C194.426 52.7266 194.34 52.3086 194.168 51.9414C194.004 51.5664 193.754 51.2695 193.418 51.0508C193.082 50.832 192.652 50.7227 192.129 50.7227C191.684 50.7227 191.301 50.8203 190.98 51.0156C190.66 51.2109 190.398 51.4844 190.195 51.8359C190 52.1875 189.852 52.6016 189.75 53.0781C189.656 53.5469 189.609 54.0625 189.609 54.625V55.0938C189.609 55.6016 189.68 56.0703 189.82 56.5C189.969 56.9297 190.176 57.3008 190.441 57.6133C190.715 57.9258 191.043 58.168 191.426 58.3398C191.816 58.5117 192.258 58.5977 192.75 58.5977C193.359 58.5977 193.926 58.4805 194.449 58.2461C194.98 58.0039 195.438 57.6406 195.82 57.1562L197.461 58.9375C197.195 59.3203 196.832 59.6875 196.371 60.0391C195.918 60.3906 195.371 60.6797 194.73 60.9062C194.09 61.125 193.359 61.2344 192.539 61.2344ZM211.09 61H207.375L207.398 58.2578H211.09C212.012 58.2578 212.789 58.0508 213.422 57.6367C214.055 57.2148 214.531 56.6016 214.852 55.7969C215.18 54.9922 215.344 54.0195 215.344 52.8789V52.0469C215.344 51.1719 215.25 50.4023 215.062 49.7383C214.883 49.0742 214.613 48.5156 214.254 48.0625C213.895 47.6094 213.453 47.2695 212.93 47.043C212.406 46.8086 211.805 46.6914 211.125 46.6914H207.305V43.9375H211.125C212.266 43.9375 213.309 44.1328 214.254 44.5234C215.207 44.9062 216.031 45.457 216.727 46.1758C217.422 46.8945 217.957 47.7539 218.332 48.7539C218.715 49.7461 218.906 50.8516 218.906 52.0703V52.8789C218.906 54.0898 218.715 55.1953 218.332 56.1953C217.957 57.1953 217.422 58.0547 216.727 58.7734C216.039 59.4844 215.215 60.0352 214.254 60.4258C213.301 60.8086 212.246 61 211.09 61ZM209.367 43.9375V61H205.852V43.9375H209.367ZM228.094 58.1406V52.4922C228.094 52.0859 228.027 51.7383 227.895 51.4492C227.762 51.1523 227.555 50.9219 227.273 50.7578C227 50.5938 226.645 50.5117 226.207 50.5117C225.832 50.5117 225.508 50.5781 225.234 50.7109C224.961 50.8359 224.75 51.0195 224.602 51.2617C224.453 51.4961 224.379 51.7734 224.379 52.0938H221.004C221.004 51.5547 221.129 51.043 221.379 50.5586C221.629 50.0742 221.992 49.6484 222.469 49.2812C222.945 48.9062 223.512 48.6133 224.168 48.4023C224.832 48.1914 225.574 48.0859 226.395 48.0859C227.379 48.0859 228.254 48.25 229.02 48.5781C229.785 48.9062 230.387 49.3984 230.824 50.0547C231.27 50.7109 231.492 51.5312 231.492 52.5156V57.9414C231.492 58.6367 231.535 59.207 231.621 59.6523C231.707 60.0898 231.832 60.4727 231.996 60.8008V61H228.586C228.422 60.6562 228.297 60.2266 228.211 59.7109C228.133 59.1875 228.094 58.6641 228.094 58.1406ZM228.539 53.2773L228.562 55.1875H226.676C226.23 55.1875 225.844 55.2383 225.516 55.3398C225.188 55.4414 224.918 55.5859 224.707 55.7734C224.496 55.9531 224.34 56.1641 224.238 56.4062C224.145 56.6484 224.098 56.9141 224.098 57.2031C224.098 57.4922 224.164 57.7539 224.297 57.9883C224.43 58.2148 224.621 58.3945 224.871 58.5273C225.121 58.6523 225.414 58.7148 225.75 58.7148C226.258 58.7148 226.699 58.6133 227.074 58.4102C227.449 58.207 227.738 57.957 227.941 57.6602C228.152 57.3633 228.262 57.082 228.27 56.8164L229.16 58.2461C229.035 58.5664 228.863 58.8984 228.645 59.2422C228.434 59.5859 228.164 59.9102 227.836 60.2148C227.508 60.5117 227.113 60.7578 226.652 60.9531C226.191 61.1406 225.645 61.2344 225.012 61.2344C224.207 61.2344 223.477 61.0742 222.82 60.7539C222.172 60.4258 221.656 59.9766 221.273 59.4062C220.898 58.8281 220.711 58.1719 220.711 57.4375C220.711 56.7734 220.836 56.1836 221.086 55.668C221.336 55.1523 221.703 54.7188 222.188 54.3672C222.68 54.0078 223.293 53.7383 224.027 53.5586C224.762 53.3711 225.613 53.2773 226.582 53.2773H228.539ZM240.305 48.3203V50.7109H232.922V48.3203H240.305ZM234.75 45.1914H238.125V57.1797C238.125 57.5469 238.172 57.8281 238.266 58.0234C238.367 58.2188 238.516 58.3555 238.711 58.4336C238.906 58.5039 239.152 58.5391 239.449 58.5391C239.66 58.5391 239.848 58.5312 240.012 58.5156C240.184 58.4922 240.328 58.4688 240.445 58.4453L240.457 60.9297C240.168 61.0234 239.855 61.0977 239.52 61.1523C239.184 61.207 238.812 61.2344 238.406 61.2344C237.664 61.2344 237.016 61.1133 236.461 60.8711C235.914 60.6211 235.492 60.2227 235.195 59.6758C234.898 59.1289 234.75 58.4102 234.75 57.5195V45.1914ZM249.07 58.1406V52.4922C249.07 52.0859 249.004 51.7383 248.871 51.4492C248.738 51.1523 248.531 50.9219 248.25 50.7578C247.977 50.5938 247.621 50.5117 247.184 50.5117C246.809 50.5117 246.484 50.5781 246.211 50.7109C245.938 50.8359 245.727 51.0195 245.578 51.2617C245.43 51.4961 245.355 51.7734 245.355 52.0938H241.98C241.98 51.5547 242.105 51.043 242.355 50.5586C242.605 50.0742 242.969 49.6484 243.445 49.2812C243.922 48.9062 244.488 48.6133 245.145 48.4023C245.809 48.1914 246.551 48.0859 247.371 48.0859C248.355 48.0859 249.23 48.25 249.996 48.5781C250.762 48.9062 251.363 49.3984 251.801 50.0547C252.246 50.7109 252.469 51.5312 252.469 52.5156V57.9414C252.469 58.6367 252.512 59.207 252.598 59.6523C252.684 60.0898 252.809 60.4727 252.973 60.8008V61H249.562C249.398 60.6562 249.273 60.2266 249.188 59.7109C249.109 59.1875 249.07 58.6641 249.07 58.1406ZM249.516 53.2773L249.539 55.1875H247.652C247.207 55.1875 246.82 55.2383 246.492 55.3398C246.164 55.4414 245.895 55.5859 245.684 55.7734C245.473 55.9531 245.316 56.1641 245.215 56.4062C245.121 56.6484 245.074 56.9141 245.074 57.2031C245.074 57.4922 245.141 57.7539 245.273 57.9883C245.406 58.2148 245.598 58.3945 245.848 58.5273C246.098 58.6523 246.391 58.7148 246.727 58.7148C247.234 58.7148 247.676 58.6133 248.051 58.4102C248.426 58.207 248.715 57.957 248.918 57.6602C249.129 57.3633 249.238 57.082 249.246 56.8164L250.137 58.2461C250.012 58.5664 249.84 58.8984 249.621 59.2422C249.41 59.5859 249.141 59.9102 248.812 60.2148C248.484 60.5117 248.09 60.7578 247.629 60.9531C247.168 61.1406 246.621 61.2344 245.988 61.2344C245.184 61.2344 244.453 61.0742 243.797 60.7539C243.148 60.4258 242.633 59.9766 242.25 59.4062C241.875 58.8281 241.688 58.1719 241.688 57.4375C241.688 56.7734 241.812 56.1836 242.062 55.668C242.312 55.1523 242.68 54.7188 243.164 54.3672C243.656 54.0078 244.27 53.7383 245.004 53.5586C245.738 53.3711 246.59 53.2773 247.559 53.2773H249.516ZM255.07 43H258.445V58.0938L258.105 61H255.07V43ZM266.473 54.5312V54.7773C266.473 55.7227 266.371 56.5898 266.168 57.3789C265.973 58.168 265.668 58.8516 265.254 59.4297C264.84 60 264.324 60.4453 263.707 60.7656C263.098 61.0781 262.379 61.2344 261.551 61.2344C260.777 61.2344 260.105 61.0781 259.535 60.7656C258.973 60.4531 258.5 60.0117 258.117 59.4414C257.734 58.8711 257.426 58.2031 257.191 57.4375C256.957 56.6719 256.781 55.8359 256.664 54.9297V54.3906C256.781 53.4844 256.957 52.6484 257.191 51.8828C257.426 51.1172 257.734 50.4492 258.117 49.8789C258.5 49.3086 258.973 48.8672 259.535 48.5547C260.098 48.2422 260.762 48.0859 261.527 48.0859C262.363 48.0859 263.09 48.2461 263.707 48.5664C264.332 48.8789 264.848 49.3242 265.254 49.9023C265.668 50.4727 265.973 51.1523 266.168 51.9414C266.371 52.7227 266.473 53.5859 266.473 54.5312ZM263.098 54.7773V54.5312C263.098 54.0156 263.059 53.5312 262.98 53.0781C262.91 52.6172 262.785 52.2148 262.605 51.8711C262.426 51.5195 262.18 51.2422 261.867 51.0391C261.562 50.8359 261.168 50.7344 260.684 50.7344C260.223 50.7344 259.832 50.8125 259.512 50.9688C259.191 51.125 258.926 51.3438 258.715 51.625C258.512 51.9062 258.359 52.2422 258.258 52.6328C258.156 53.0156 258.094 53.4375 258.07 53.8984V55.4336C258.094 56.0508 258.195 56.5977 258.375 57.0742C258.562 57.543 258.844 57.9141 259.219 58.1875C259.602 58.4531 260.098 58.5859 260.707 58.5859C261.184 58.5859 261.578 58.4922 261.891 58.3047C262.203 58.1172 262.445 57.8516 262.617 57.5078C262.797 57.1641 262.922 56.7617 262.992 56.3008C263.062 55.832 263.098 55.3242 263.098 54.7773ZM275.414 58.1406V52.4922C275.414 52.0859 275.348 51.7383 275.215 51.4492C275.082 51.1523 274.875 50.9219 274.594 50.7578C274.32 50.5938 273.965 50.5117 273.527 50.5117C273.152 50.5117 272.828 50.5781 272.555 50.7109C272.281 50.8359 272.07 51.0195 271.922 51.2617C271.773 51.4961 271.699 51.7734 271.699 52.0938H268.324C268.324 51.5547 268.449 51.043 268.699 50.5586C268.949 50.0742 269.312 49.6484 269.789 49.2812C270.266 48.9062 270.832 48.6133 271.488 48.4023C272.152 48.1914 272.895 48.0859 273.715 48.0859C274.699 48.0859 275.574 48.25 276.34 48.5781C277.105 48.9062 277.707 49.3984 278.145 50.0547C278.59 50.7109 278.812 51.5312 278.812 52.5156V57.9414C278.812 58.6367 278.855 59.207 278.941 59.6523C279.027 60.0898 279.152 60.4727 279.316 60.8008V61H275.906C275.742 60.6562 275.617 60.2266 275.531 59.7109C275.453 59.1875 275.414 58.6641 275.414 58.1406ZM275.859 53.2773L275.883 55.1875H273.996C273.551 55.1875 273.164 55.2383 272.836 55.3398C272.508 55.4414 272.238 55.5859 272.027 55.7734C271.816 55.9531 271.66 56.1641 271.559 56.4062C271.465 56.6484 271.418 56.9141 271.418 57.2031C271.418 57.4922 271.484 57.7539 271.617 57.9883C271.75 58.2148 271.941 58.3945 272.191 58.5273C272.441 58.6523 272.734 58.7148 273.07 58.7148C273.578 58.7148 274.02 58.6133 274.395 58.4102C274.77 58.207 275.059 57.957 275.262 57.6602C275.473 57.3633 275.582 57.082 275.59 56.8164L276.48 58.2461C276.355 58.5664 276.184 58.8984 275.965 59.2422C275.754 59.5859 275.484 59.9102 275.156 60.2148C274.828 60.5117 274.434 60.7578 273.973 60.9531C273.512 61.1406 272.965 61.2344 272.332 61.2344C271.527 61.2344 270.797 61.0742 270.141 60.7539C269.492 60.4258 268.977 59.9766 268.594 59.4062C268.219 58.8281 268.031 58.1719 268.031 57.4375C268.031 56.7734 268.156 56.1836 268.406 55.668C268.656 55.1523 269.023 54.7188 269.508 54.3672C270 54.0078 270.613 53.7383 271.348 53.5586C272.082 53.3711 272.934 53.2773 273.902 53.2773H275.859ZM288.27 57.4961C288.27 57.2539 288.199 57.0352 288.059 56.8398C287.918 56.6445 287.656 56.4648 287.273 56.3008C286.898 56.1289 286.355 55.9727 285.645 55.832C285.004 55.6914 284.406 55.5156 283.852 55.3047C283.305 55.0859 282.828 54.8242 282.422 54.5195C282.023 54.2148 281.711 53.8555 281.484 53.4414C281.258 53.0195 281.145 52.5391 281.145 52C281.145 51.4688 281.258 50.9688 281.484 50.5C281.719 50.0312 282.051 49.6172 282.48 49.2578C282.918 48.8906 283.449 48.6055 284.074 48.4023C284.707 48.1914 285.418 48.0859 286.207 48.0859C287.309 48.0859 288.254 48.2617 289.043 48.6133C289.84 48.9648 290.449 49.4492 290.871 50.0664C291.301 50.6758 291.516 51.3711 291.516 52.1523H288.141C288.141 51.8242 288.07 51.5312 287.93 51.2734C287.797 51.0078 287.586 50.8008 287.297 50.6523C287.016 50.4961 286.648 50.418 286.195 50.418C285.82 50.418 285.496 50.4844 285.223 50.6172C284.949 50.7422 284.738 50.9141 284.59 51.1328C284.449 51.3438 284.379 51.5781 284.379 51.8359C284.379 52.0312 284.418 52.207 284.496 52.3633C284.582 52.5117 284.719 52.6484 284.906 52.7734C285.094 52.8984 285.336 53.0156 285.633 53.125C285.938 53.2266 286.312 53.3203 286.758 53.4062C287.672 53.5938 288.488 53.8398 289.207 54.1445C289.926 54.4414 290.496 54.8477 290.918 55.3633C291.34 55.8711 291.551 56.5391 291.551 57.3672C291.551 57.9297 291.426 58.4453 291.176 58.9141C290.926 59.3828 290.566 59.793 290.098 60.1445C289.629 60.4883 289.066 60.7578 288.41 60.9531C287.762 61.1406 287.031 61.2344 286.219 61.2344C285.039 61.2344 284.039 61.0234 283.219 60.6016C282.406 60.1797 281.789 59.6445 281.367 58.9961C280.953 58.3398 280.746 57.668 280.746 56.9805H283.945C283.961 57.4414 284.078 57.8125 284.297 58.0938C284.523 58.375 284.809 58.5781 285.152 58.7031C285.504 58.8281 285.883 58.8906 286.289 58.8906C286.727 58.8906 287.09 58.832 287.379 58.7148C287.668 58.5898 287.887 58.4258 288.035 58.2227C288.191 58.0117 288.27 57.7695 288.27 57.4961ZM299.578 61.2344C298.594 61.2344 297.711 61.0781 296.93 60.7656C296.148 60.4453 295.484 60.0039 294.938 59.4414C294.398 58.8789 293.984 58.2266 293.695 57.4844C293.406 56.7344 293.262 55.9375 293.262 55.0938V54.625C293.262 53.6641 293.398 52.7852 293.672 51.9883C293.945 51.1914 294.336 50.5 294.844 49.9141C295.359 49.3281 295.984 48.8789 296.719 48.5664C297.453 48.2461 298.281 48.0859 299.203 48.0859C300.102 48.0859 300.898 48.2344 301.594 48.5312C302.289 48.8281 302.871 49.25 303.34 49.7969C303.816 50.3438 304.176 51 304.418 51.7656C304.66 52.5234 304.781 53.3672 304.781 54.2969V55.7031H294.703V53.4531H301.465V53.1953C301.465 52.7266 301.379 52.3086 301.207 51.9414C301.043 51.5664 300.793 51.2695 300.457 51.0508C300.121 50.832 299.691 50.7227 299.168 50.7227C298.723 50.7227 298.34 50.8203 298.02 51.0156C297.699 51.2109 297.438 51.4844 297.234 51.8359C297.039 52.1875 296.891 52.6016 296.789 53.0781C296.695 53.5469 296.648 54.0625 296.648 54.625V55.0938C296.648 55.6016 296.719 56.0703 296.859 56.5C297.008 56.9297 297.215 57.3008 297.48 57.6133C297.754 57.9258 298.082 58.168 298.465 58.3398C298.855 58.5117 299.297 58.5977 299.789 58.5977C300.398 58.5977 300.965 58.4805 301.488 58.2461C302.02 58.0039 302.477 57.6406 302.859 57.1562L304.5 58.9375C304.234 59.3203 303.871 59.6875 303.41 60.0391C302.957 60.3906 302.41 60.6797 301.77 60.9062C301.129 61.125 300.398 61.2344 299.578 61.2344ZM321.773 56.5352C321.773 56.2305 321.727 55.957 321.633 55.7148C321.547 55.4648 321.383 55.2383 321.141 55.0352C320.898 54.8242 320.559 54.6172 320.121 54.4141C319.684 54.2109 319.117 54 318.422 53.7812C317.648 53.5312 316.914 53.25 316.219 52.9375C315.531 52.625 314.922 52.2617 314.391 51.8477C313.867 51.4258 313.453 50.9375 313.148 50.3828C312.852 49.8281 312.703 49.1836 312.703 48.4492C312.703 47.7383 312.859 47.0938 313.172 46.5156C313.484 45.9297 313.922 45.4297 314.484 45.0156C315.047 44.5938 315.711 44.2695 316.477 44.043C317.25 43.8164 318.098 43.7031 319.02 43.7031C320.277 43.7031 321.375 43.9297 322.312 44.3828C323.25 44.8359 323.977 45.457 324.492 46.2461C325.016 47.0352 325.277 47.9375 325.277 48.9531H321.785C321.785 48.4531 321.68 48.0156 321.469 47.6406C321.266 47.2578 320.953 46.957 320.531 46.7383C320.117 46.5195 319.594 46.4102 318.961 46.4102C318.352 46.4102 317.844 46.5039 317.438 46.6914C317.031 46.8711 316.727 47.1172 316.523 47.4297C316.32 47.7344 316.219 48.0781 316.219 48.4609C316.219 48.75 316.289 49.0117 316.43 49.2461C316.578 49.4805 316.797 49.6992 317.086 49.9023C317.375 50.1055 317.73 50.2969 318.152 50.4766C318.574 50.6562 319.062 50.832 319.617 51.0039C320.547 51.2852 321.363 51.6016 322.066 51.9531C322.777 52.3047 323.371 52.6992 323.848 53.1367C324.324 53.5742 324.684 54.0703 324.926 54.625C325.168 55.1797 325.289 55.8086 325.289 56.5117C325.289 57.2539 325.145 57.918 324.855 58.5039C324.566 59.0898 324.148 59.5859 323.602 59.9922C323.055 60.3984 322.402 60.707 321.645 60.918C320.887 61.1289 320.039 61.2344 319.102 61.2344C318.258 61.2344 317.426 61.125 316.605 60.9062C315.785 60.6797 315.039 60.3398 314.367 59.8867C313.703 59.4336 313.172 58.8555 312.773 58.1523C312.375 57.4492 312.176 56.6172 312.176 55.6562H315.703C315.703 56.1875 315.785 56.6367 315.949 57.0039C316.113 57.3711 316.344 57.668 316.641 57.8945C316.945 58.1211 317.305 58.2852 317.719 58.3867C318.141 58.4883 318.602 58.5391 319.102 58.5391C319.711 58.5391 320.211 58.4531 320.602 58.2812C321 58.1094 321.293 57.8711 321.48 57.5664C321.676 57.2617 321.773 56.918 321.773 56.5352ZM331.23 59.5703L334.594 48.3203H338.215L333.117 62.9102C333.008 63.2305 332.859 63.5742 332.672 63.9414C332.492 64.3086 332.246 64.6562 331.934 64.9844C331.629 65.3203 331.242 65.5938 330.773 65.8047C330.312 66.0156 329.746 66.1211 329.074 66.1211C328.754 66.1211 328.492 66.1016 328.289 66.0625C328.086 66.0234 327.844 65.9688 327.562 65.8984V63.4258C327.648 63.4258 327.738 63.4258 327.832 63.4258C327.926 63.4336 328.016 63.4375 328.102 63.4375C328.547 63.4375 328.91 63.3867 329.191 63.2852C329.473 63.1836 329.699 63.0273 329.871 62.8164C330.043 62.6133 330.18 62.3477 330.281 62.0195L331.23 59.5703ZM329.824 48.3203L332.578 57.5078L333.059 61.082L330.762 61.3281L326.203 48.3203H329.824ZM346.418 57.4961C346.418 57.2539 346.348 57.0352 346.207 56.8398C346.066 56.6445 345.805 56.4648 345.422 56.3008C345.047 56.1289 344.504 55.9727 343.793 55.832C343.152 55.6914 342.555 55.5156 342 55.3047C341.453 55.0859 340.977 54.8242 340.57 54.5195C340.172 54.2148 339.859 53.8555 339.633 53.4414C339.406 53.0195 339.293 52.5391 339.293 52C339.293 51.4688 339.406 50.9688 339.633 50.5C339.867 50.0312 340.199 49.6172 340.629 49.2578C341.066 48.8906 341.598 48.6055 342.223 48.4023C342.855 48.1914 343.566 48.0859 344.355 48.0859C345.457 48.0859 346.402 48.2617 347.191 48.6133C347.988 48.9648 348.598 49.4492 349.02 50.0664C349.449 50.6758 349.664 51.3711 349.664 52.1523H346.289C346.289 51.8242 346.219 51.5312 346.078 51.2734C345.945 51.0078 345.734 50.8008 345.445 50.6523C345.164 50.4961 344.797 50.418 344.344 50.418C343.969 50.418 343.645 50.4844 343.371 50.6172C343.098 50.7422 342.887 50.9141 342.738 51.1328C342.598 51.3438 342.527 51.5781 342.527 51.8359C342.527 52.0312 342.566 52.207 342.645 52.3633C342.73 52.5117 342.867 52.6484 343.055 52.7734C343.242 52.8984 343.484 53.0156 343.781 53.125C344.086 53.2266 344.461 53.3203 344.906 53.4062C345.82 53.5938 346.637 53.8398 347.355 54.1445C348.074 54.4414 348.645 54.8477 349.066 55.3633C349.488 55.8711 349.699 56.5391 349.699 57.3672C349.699 57.9297 349.574 58.4453 349.324 58.9141C349.074 59.3828 348.715 59.793 348.246 60.1445C347.777 60.4883 347.215 60.7578 346.559 60.9531C345.91 61.1406 345.18 61.2344 344.367 61.2344C343.188 61.2344 342.188 61.0234 341.367 60.6016C340.555 60.1797 339.938 59.6445 339.516 58.9961C339.102 58.3398 338.895 57.668 338.895 56.9805H342.094C342.109 57.4414 342.227 57.8125 342.445 58.0938C342.672 58.375 342.957 58.5781 343.301 58.7031C343.652 58.8281 344.031 58.8906 344.438 58.8906C344.875 58.8906 345.238 58.832 345.527 58.7148C345.816 58.5898 346.035 58.4258 346.184 58.2227C346.34 58.0117 346.418 57.7695 346.418 57.4961ZM358.102 48.3203V50.7109H350.719V48.3203H358.102ZM352.547 45.1914H355.922V57.1797C355.922 57.5469 355.969 57.8281 356.062 58.0234C356.164 58.2188 356.312 58.3555 356.508 58.4336C356.703 58.5039 356.949 58.5391 357.246 58.5391C357.457 58.5391 357.645 58.5312 357.809 58.5156C357.98 58.4922 358.125 58.4688 358.242 58.4453L358.254 60.9297C357.965 61.0234 357.652 61.0977 357.316 61.1523C356.98 61.207 356.609 61.2344 356.203 61.2344C355.461 61.2344 354.812 61.1133 354.258 60.8711C353.711 60.6211 353.289 60.2227 352.992 59.6758C352.695 59.1289 352.547 58.4102 352.547 57.5195V45.1914ZM365.859 61.2344C364.875 61.2344 363.992 61.0781 363.211 60.7656C362.43 60.4453 361.766 60.0039 361.219 59.4414C360.68 58.8789 360.266 58.2266 359.977 57.4844C359.688 56.7344 359.543 55.9375 359.543 55.0938V54.625C359.543 53.6641 359.68 52.7852 359.953 51.9883C360.227 51.1914 360.617 50.5 361.125 49.9141C361.641 49.3281 362.266 48.8789 363 48.5664C363.734 48.2461 364.562 48.0859 365.484 48.0859C366.383 48.0859 367.18 48.2344 367.875 48.5312C368.57 48.8281 369.152 49.25 369.621 49.7969C370.098 50.3438 370.457 51 370.699 51.7656C370.941 52.5234 371.062 53.3672 371.062 54.2969V55.7031H360.984V53.4531H367.746V53.1953C367.746 52.7266 367.66 52.3086 367.488 51.9414C367.324 51.5664 367.074 51.2695 366.738 51.0508C366.402 50.832 365.973 50.7227 365.449 50.7227C365.004 50.7227 364.621 50.8203 364.301 51.0156C363.98 51.2109 363.719 51.4844 363.516 51.8359C363.32 52.1875 363.172 52.6016 363.07 53.0781C362.977 53.5469 362.93 54.0625 362.93 54.625V55.0938C362.93 55.6016 363 56.0703 363.141 56.5C363.289 56.9297 363.496 57.3008 363.762 57.6133C364.035 57.9258 364.363 58.168 364.746 58.3398C365.137 58.5117 365.578 58.5977 366.07 58.5977C366.68 58.5977 367.246 58.4805 367.77 58.2461C368.301 58.0039 368.758 57.6406 369.141 57.1562L370.781 58.9375C370.516 59.3203 370.152 59.6875 369.691 60.0391C369.238 60.3906 368.691 60.6797 368.051 60.9062C367.41 61.125 366.68 61.2344 365.859 61.2344ZM376.359 50.9453V61H372.973V48.3203H376.148L376.359 50.9453ZM375.891 54.2148H374.953C374.953 53.332 375.059 52.5195 375.27 51.7773C375.488 51.0273 375.805 50.3789 376.219 49.832C376.641 49.2773 377.16 48.8477 377.777 48.543C378.395 48.2383 379.109 48.0859 379.922 48.0859C380.484 48.0859 381 48.1719 381.469 48.3438C381.938 48.5078 382.34 48.7695 382.676 49.1289C383.02 49.4805 383.285 49.9414 383.473 50.5117C383.66 51.0742 383.754 51.75 383.754 52.5391V61H380.379V52.9141C380.379 52.3359 380.301 51.8906 380.145 51.5781C379.988 51.2656 379.766 51.0469 379.477 50.9219C379.195 50.7969 378.855 50.7344 378.457 50.7344C378.02 50.7344 377.637 50.8242 377.309 51.0039C376.988 51.1836 376.723 51.4336 376.512 51.7539C376.301 52.0664 376.145 52.4336 376.043 52.8555C375.941 53.2773 375.891 53.7305 375.891 54.2148ZM383.438 53.8281L382.23 53.9805C382.23 53.1523 382.332 52.3828 382.535 51.6719C382.746 50.9609 383.055 50.3359 383.461 49.7969C383.875 49.2578 384.387 48.8398 384.996 48.543C385.605 48.2383 386.309 48.0859 387.105 48.0859C387.715 48.0859 388.27 48.1758 388.77 48.3555C389.27 48.5273 389.695 48.8047 390.047 49.1875C390.406 49.5625 390.68 50.0547 390.867 50.6641C391.062 51.2734 391.16 52.0195 391.16 52.9023V61H387.773V52.9023C387.773 52.3164 387.695 51.8711 387.539 51.5664C387.391 51.2539 387.172 51.0391 386.883 50.9219C386.602 50.7969 386.266 50.7344 385.875 50.7344C385.469 50.7344 385.113 50.8164 384.809 50.9805C384.504 51.1367 384.25 51.3555 384.047 51.6367C383.844 51.918 383.691 52.2461 383.59 52.6211C383.488 52.9883 383.438 53.3906 383.438 53.8281Z" fill="#888888"/>
<path d="M109.219 107.422H100.734V101.07H109.219C110.375 101.07 111.312 100.875 112.031 100.484C112.75 100.094 113.273 99.5547 113.602 98.8672C113.945 98.1641 114.117 97.375 114.117 96.5C114.117 95.5625 113.945 94.6953 113.602 93.8984C113.273 93.1016 112.75 92.4609 112.031 91.9766C111.312 91.4766 110.375 91.2266 109.219 91.2266H103.828V119H95.6016V84.875H109.219C111.953 84.875 114.305 85.375 116.273 86.375C118.258 87.375 119.781 88.75 120.844 90.5C121.906 92.2344 122.438 94.2188 122.438 96.4531C122.438 98.6562 121.906 100.578 120.844 102.219C119.781 103.859 118.258 105.141 116.273 106.062C114.305 106.969 111.953 107.422 109.219 107.422ZM134.461 99.9219V119H126.562V93.6406H133.945L134.461 99.9219ZM141.961 93.4531L141.82 100.789C141.508 100.758 141.086 100.719 140.555 100.672C140.023 100.625 139.578 100.602 139.219 100.602C138.297 100.602 137.5 100.711 136.828 100.93C136.172 101.133 135.625 101.445 135.188 101.867C134.766 102.273 134.453 102.789 134.25 103.414C134.062 104.039 133.977 104.766 133.992 105.594L132.562 104.656C132.562 102.953 132.727 101.406 133.055 100.016C133.398 98.6094 133.883 97.3984 134.508 96.3828C135.133 95.3516 135.891 94.5625 136.781 94.0156C137.672 93.4531 138.672 93.1719 139.781 93.1719C140.172 93.1719 140.555 93.1953 140.93 93.2422C141.32 93.2891 141.664 93.3594 141.961 93.4531ZM142.852 106.578V106.086C142.852 104.227 143.117 102.516 143.648 100.953C144.18 99.375 144.961 98.0078 145.992 96.8516C147.023 95.6953 148.297 94.7969 149.812 94.1562C151.328 93.5 153.078 93.1719 155.062 93.1719C157.062 93.1719 158.82 93.5 160.336 94.1562C161.867 94.7969 163.148 95.6953 164.18 96.8516C165.211 98.0078 165.992 99.375 166.523 100.953C167.055 102.516 167.32 104.227 167.32 106.086V106.578C167.32 108.422 167.055 110.133 166.523 111.711C165.992 113.273 165.211 114.641 164.18 115.812C163.148 116.969 161.875 117.867 160.359 118.508C158.844 119.148 157.094 119.469 155.109 119.469C153.125 119.469 151.367 119.148 149.836 118.508C148.305 117.867 147.023 116.969 145.992 115.812C144.961 114.641 144.18 113.273 143.648 111.711C143.117 110.133 142.852 108.422 142.852 106.578ZM150.75 106.086V106.578C150.75 107.531 150.82 108.422 150.961 109.25C151.102 110.078 151.336 110.805 151.664 111.43C151.992 112.039 152.438 112.516 153 112.859C153.562 113.203 154.266 113.375 155.109 113.375C155.938 113.375 156.625 113.203 157.172 112.859C157.734 112.516 158.18 112.039 158.508 111.43C158.836 110.805 159.07 110.078 159.211 109.25C159.352 108.422 159.422 107.531 159.422 106.578V106.086C159.422 105.164 159.352 104.297 159.211 103.484C159.07 102.656 158.836 101.93 158.508 101.305C158.18 100.664 157.734 100.164 157.172 99.8047C156.609 99.4453 155.906 99.2656 155.062 99.2656C154.234 99.2656 153.539 99.4453 152.977 99.8047C152.43 100.164 151.992 100.664 151.664 101.305C151.336 101.93 151.102 102.656 150.961 103.484C150.82 104.297 150.75 105.164 150.75 106.086ZM171.422 93.6406H179.344V119.82C179.344 121.852 178.953 123.562 178.172 124.953C177.391 126.359 176.273 127.422 174.82 128.141C173.367 128.875 171.633 129.242 169.617 129.242C168.945 129.242 168.328 129.211 167.766 129.148C167.188 129.102 166.555 129 165.867 128.844V122.867C166.273 122.93 166.648 122.977 166.992 123.008C167.336 123.055 167.711 123.078 168.117 123.078C168.836 123.078 169.438 122.961 169.922 122.727C170.406 122.492 170.773 122.133 171.023 121.648C171.289 121.164 171.422 120.555 171.422 119.82V93.6406ZM170.836 87.1016C170.836 85.9766 171.242 85.0547 172.055 84.3359C172.867 83.6172 173.922 83.2578 175.219 83.2578C176.516 83.2578 177.57 83.6172 178.383 84.3359C179.195 85.0547 179.602 85.9766 179.602 87.1016C179.602 88.2266 179.195 89.1484 178.383 89.8672C177.57 90.5859 176.516 90.9453 175.219 90.9453C173.922 90.9453 172.867 90.5859 172.055 89.8672C171.242 89.1484 170.836 88.2266 170.836 87.1016ZM196.102 119.469C194.039 119.469 192.195 119.148 190.57 118.508C188.945 117.852 187.57 116.953 186.445 115.812C185.336 114.672 184.484 113.359 183.891 111.875C183.312 110.391 183.023 108.82 183.023 107.164V106.273C183.023 104.414 183.281 102.695 183.797 101.117C184.312 99.5234 185.078 98.1328 186.094 96.9453C187.109 95.7578 188.383 94.8359 189.914 94.1797C191.445 93.5078 193.227 93.1719 195.258 93.1719C197.055 93.1719 198.664 93.4609 200.086 94.0391C201.508 94.6172 202.711 95.4453 203.695 96.5234C204.695 97.6016 205.453 98.9062 205.969 100.438C206.5 101.969 206.766 103.688 206.766 105.594V108.805H186.047V103.859H199.055V103.25C199.07 102.406 198.922 101.688 198.609 101.094C198.312 100.5 197.875 100.047 197.297 99.7344C196.719 99.4219 196.016 99.2656 195.188 99.2656C194.328 99.2656 193.617 99.4531 193.055 99.8281C192.508 100.203 192.078 100.719 191.766 101.375C191.469 102.016 191.258 102.758 191.133 103.602C191.008 104.445 190.945 105.336 190.945 106.273V107.164C190.945 108.102 191.07 108.953 191.32 109.719C191.586 110.484 191.961 111.141 192.445 111.688C192.945 112.219 193.539 112.633 194.227 112.93C194.93 113.227 195.727 113.375 196.617 113.375C197.695 113.375 198.758 113.172 199.805 112.766C200.852 112.359 201.75 111.688 202.5 110.75L206.086 115.016C205.57 115.75 204.836 116.461 203.883 117.148C202.945 117.836 201.82 118.398 200.508 118.836C199.195 119.258 197.727 119.469 196.102 119.469ZM220.688 113.375C221.422 113.375 222.047 113.242 222.562 112.977C223.094 112.695 223.492 112.305 223.758 111.805C224.039 111.289 224.172 110.672 224.156 109.953H231.586C231.602 111.859 231.133 113.531 230.18 114.969C229.242 116.391 227.961 117.5 226.336 118.297C224.727 119.078 222.906 119.469 220.875 119.469C218.891 119.469 217.156 119.148 215.672 118.508C214.188 117.852 212.945 116.945 211.945 115.789C210.961 114.617 210.219 113.25 209.719 111.688C209.234 110.125 208.992 108.43 208.992 106.602V106.062C208.992 104.234 209.234 102.539 209.719 100.977C210.219 99.3984 210.961 98.0312 211.945 96.875C212.945 95.7031 214.18 94.7969 215.648 94.1562C217.133 93.5 218.859 93.1719 220.828 93.1719C222.938 93.1719 224.797 93.5703 226.406 94.3672C228.031 95.1641 229.305 96.3203 230.227 97.8359C231.148 99.3516 231.602 101.188 231.586 103.344H224.156C224.172 102.578 224.055 101.891 223.805 101.281C223.555 100.672 223.164 100.188 222.633 99.8281C222.117 99.4531 221.453 99.2656 220.641 99.2656C219.828 99.2656 219.172 99.4453 218.672 99.8047C218.172 100.164 217.789 100.664 217.523 101.305C217.273 101.93 217.102 102.648 217.008 103.461C216.93 104.273 216.891 105.141 216.891 106.062V106.602C216.891 107.539 216.93 108.422 217.008 109.25C217.102 110.062 217.281 110.781 217.547 111.406C217.812 112.016 218.195 112.5 218.695 112.859C219.195 113.203 219.859 113.375 220.688 113.375ZM248.32 93.6406V99.125H233.039V93.6406H248.32ZM236.25 87.3359H244.148V110.727C244.148 111.398 244.227 111.922 244.383 112.297C244.539 112.656 244.805 112.914 245.18 113.07C245.57 113.211 246.086 113.281 246.727 113.281C247.18 113.281 247.555 113.273 247.852 113.258C248.148 113.227 248.43 113.188 248.695 113.141V118.789C248.023 119.008 247.32 119.172 246.586 119.281C245.852 119.406 245.07 119.469 244.242 119.469C242.555 119.469 241.109 119.203 239.906 118.672C238.719 118.141 237.812 117.305 237.188 116.164C236.562 115.023 236.25 113.539 236.25 111.711V87.3359ZM274.875 119H267.305L267.352 112.672H274.875C276.438 112.672 277.758 112.297 278.836 111.547C279.93 110.797 280.758 109.68 281.32 108.195C281.898 106.695 282.188 104.852 282.188 102.664V101.188C282.188 99.5469 282.023 98.1094 281.695 96.875C281.383 95.625 280.914 94.5859 280.289 93.7578C279.664 92.9141 278.883 92.2812 277.945 91.8594C277.023 91.4375 275.961 91.2266 274.758 91.2266H267.164V84.875H274.758C277.07 84.875 279.188 85.2734 281.109 86.0703C283.047 86.8516 284.719 87.9766 286.125 89.4453C287.547 90.8984 288.641 92.625 289.406 94.625C290.188 96.6094 290.578 98.8125 290.578 101.234V102.664C290.578 105.07 290.188 107.273 289.406 109.273C288.641 111.273 287.555 113 286.148 114.453C284.742 115.906 283.078 117.031 281.156 117.828C279.25 118.609 277.156 119 274.875 119ZM272.016 84.875V119H263.789V84.875H272.016ZM306.773 119.469C304.711 119.469 302.867 119.148 301.242 118.508C299.617 117.852 298.242 116.953 297.117 115.812C296.008 114.672 295.156 113.359 294.562 111.875C293.984 110.391 293.695 108.82 293.695 107.164V106.273C293.695 104.414 293.953 102.695 294.469 101.117C294.984 99.5234 295.75 98.1328 296.766 96.9453C297.781 95.7578 299.055 94.8359 300.586 94.1797C302.117 93.5078 303.898 93.1719 305.93 93.1719C307.727 93.1719 309.336 93.4609 310.758 94.0391C312.18 94.6172 313.383 95.4453 314.367 96.5234C315.367 97.6016 316.125 98.9062 316.641 100.438C317.172 101.969 317.438 103.688 317.438 105.594V108.805H296.719V103.859H309.727V103.25C309.742 102.406 309.594 101.688 309.281 101.094C308.984 100.5 308.547 100.047 307.969 99.7344C307.391 99.4219 306.688 99.2656 305.859 99.2656C305 99.2656 304.289 99.4531 303.727 99.8281C303.18 100.203 302.75 100.719 302.438 101.375C302.141 102.016 301.93 102.758 301.805 103.602C301.68 104.445 301.617 105.336 301.617 106.273V107.164C301.617 108.102 301.742 108.953 301.992 109.719C302.258 110.484 302.633 111.141 303.117 111.688C303.617 112.219 304.211 112.633 304.898 112.93C305.602 113.227 306.398 113.375 307.289 113.375C308.367 113.375 309.43 113.172 310.477 112.766C311.523 112.359 312.422 111.688 313.172 110.75L316.758 115.016C316.242 115.75 315.508 116.461 314.555 117.148C313.617 117.836 312.492 118.398 311.18 118.836C309.867 119.258 308.398 119.469 306.773 119.469ZM333.938 111.875C333.938 111.438 333.789 111.062 333.492 110.75C333.211 110.422 332.711 110.125 331.992 109.859C331.273 109.578 330.266 109.297 328.969 109.016C327.734 108.75 326.57 108.398 325.477 107.961C324.398 107.523 323.453 106.992 322.641 106.367C321.828 105.742 321.188 105 320.719 104.141C320.266 103.281 320.039 102.297 320.039 101.188C320.039 100.109 320.266 99.0938 320.719 98.1406C321.188 97.1719 321.867 96.3203 322.758 95.5859C323.664 94.8359 324.766 94.25 326.062 93.8281C327.359 93.3906 328.836 93.1719 330.492 93.1719C332.773 93.1719 334.742 93.5234 336.398 94.2266C338.055 94.9141 339.328 95.8828 340.219 97.1328C341.125 98.3672 341.578 99.7969 341.578 101.422H333.68C333.68 100.781 333.57 100.234 333.352 99.7812C333.148 99.3281 332.812 98.9844 332.344 98.75C331.875 98.5 331.25 98.375 330.469 98.375C329.922 98.375 329.422 98.4766 328.969 98.6797C328.531 98.8828 328.18 99.1641 327.914 99.5234C327.648 99.8828 327.516 100.305 327.516 100.789C327.516 101.133 327.594 101.445 327.75 101.727C327.922 101.992 328.18 102.242 328.523 102.477C328.867 102.695 329.305 102.898 329.836 103.086C330.367 103.258 331.008 103.414 331.758 103.555C333.461 103.867 335.055 104.312 336.539 104.891C338.023 105.469 339.227 106.289 340.148 107.352C341.086 108.414 341.555 109.844 341.555 111.641C341.555 112.766 341.297 113.805 340.781 114.758C340.266 115.695 339.523 116.523 338.555 117.242C337.586 117.945 336.422 118.492 335.062 118.883C333.703 119.273 332.172 119.469 330.469 119.469C328.047 119.469 326 119.039 324.328 118.18C322.656 117.305 321.391 116.211 320.531 114.898C319.688 113.57 319.266 112.227 319.266 110.867H326.625C326.656 111.648 326.844 112.289 327.188 112.789C327.547 113.289 328.023 113.656 328.617 113.891C329.211 114.125 329.898 114.242 330.68 114.242C331.398 114.242 331.992 114.141 332.461 113.938C332.945 113.734 333.312 113.461 333.562 113.117C333.812 112.758 333.938 112.344 333.938 111.875ZM355.969 113.375C356.703 113.375 357.328 113.242 357.844 112.977C358.375 112.695 358.773 112.305 359.039 111.805C359.32 111.289 359.453 110.672 359.438 109.953H366.867C366.883 111.859 366.414 113.531 365.461 114.969C364.523 116.391 363.242 117.5 361.617 118.297C360.008 119.078 358.188 119.469 356.156 119.469C354.172 119.469 352.438 119.148 350.953 118.508C349.469 117.852 348.227 116.945 347.227 115.789C346.242 114.617 345.5 113.25 345 111.688C344.516 110.125 344.273 108.43 344.273 106.602V106.062C344.273 104.234 344.516 102.539 345 100.977C345.5 99.3984 346.242 98.0312 347.227 96.875C348.227 95.7031 349.461 94.7969 350.93 94.1562C352.414 93.5 354.141 93.1719 356.109 93.1719C358.219 93.1719 360.078 93.5703 361.688 94.3672C363.312 95.1641 364.586 96.3203 365.508 97.8359C366.43 99.3516 366.883 101.188 366.867 103.344H359.438C359.453 102.578 359.336 101.891 359.086 101.281C358.836 100.672 358.445 100.188 357.914 99.8281C357.398 99.4531 356.734 99.2656 355.922 99.2656C355.109 99.2656 354.453 99.4453 353.953 99.8047C353.453 100.164 353.07 100.664 352.805 101.305C352.555 101.93 352.383 102.648 352.289 103.461C352.211 104.273 352.172 105.141 352.172 106.062V106.602C352.172 107.539 352.211 108.422 352.289 109.25C352.383 110.062 352.562 110.781 352.828 111.406C353.094 112.016 353.477 112.5 353.977 112.859C354.477 113.203 355.141 113.375 355.969 113.375ZM378.211 99.9219V119H370.312V93.6406H377.695L378.211 99.9219ZM385.711 93.4531L385.57 100.789C385.258 100.758 384.836 100.719 384.305 100.672C383.773 100.625 383.328 100.602 382.969 100.602C382.047 100.602 381.25 100.711 380.578 100.93C379.922 101.133 379.375 101.445 378.938 101.867C378.516 102.273 378.203 102.789 378 103.414C377.812 104.039 377.727 104.766 377.742 105.594L376.312 104.656C376.312 102.953 376.477 101.406 376.805 100.016C377.148 98.6094 377.633 97.3984 378.258 96.3828C378.883 95.3516 379.641 94.5625 380.531 94.0156C381.422 93.4531 382.422 93.1719 383.531 93.1719C383.922 93.1719 384.305 93.1953 384.68 93.2422C385.07 93.2891 385.414 93.3594 385.711 93.4531ZM396.773 93.6406V119H388.852V93.6406H396.773ZM388.383 87.1016C388.383 85.9766 388.789 85.0547 389.602 84.3359C390.414 83.6172 391.469 83.2578 392.766 83.2578C394.062 83.2578 395.117 83.6172 395.93 84.3359C396.742 85.0547 397.148 85.9766 397.148 87.1016C397.148 88.2266 396.742 89.1484 395.93 89.8672C395.117 90.5859 394.062 90.9453 392.766 90.9453C391.469 90.9453 390.414 90.5859 389.602 89.8672C388.789 89.1484 388.383 88.2266 388.383 87.1016ZM409.617 98.5156V128.75H401.719V93.6406H409.078L409.617 98.5156ZM425.18 106.016V106.508C425.18 108.352 424.969 110.062 424.547 111.641C424.125 113.219 423.5 114.594 422.672 115.766C421.844 116.938 420.812 117.852 419.578 118.508C418.359 119.148 416.945 119.469 415.336 119.469C413.82 119.469 412.516 119.133 411.422 118.461C410.328 117.789 409.414 116.859 408.68 115.672C407.945 114.484 407.352 113.125 406.898 111.594C406.445 110.062 406.086 108.445 405.82 106.742V106.109C406.086 104.281 406.445 102.586 406.898 101.023C407.352 99.4453 407.945 98.0703 408.68 96.8984C409.414 95.7266 410.32 94.8125 411.398 94.1562C412.492 93.5 413.797 93.1719 415.312 93.1719C416.922 93.1719 418.336 93.4766 419.555 94.0859C420.789 94.6953 421.82 95.5703 422.648 96.7109C423.492 97.8359 424.125 99.1875 424.547 100.766C424.969 102.344 425.18 104.094 425.18 106.016ZM417.281 106.508V106.016C417.281 105.031 417.211 104.133 417.07 103.32C416.93 102.492 416.703 101.773 416.391 101.164C416.094 100.555 415.695 100.086 415.195 99.7578C414.695 99.4297 414.078 99.2656 413.344 99.2656C412.5 99.2656 411.789 99.3984 411.211 99.6641C410.648 99.9141 410.195 100.305 409.852 100.836C409.523 101.352 409.289 102 409.148 102.781C409.023 103.547 408.969 104.445 408.984 105.477V107.398C408.953 108.586 409.07 109.633 409.336 110.539C409.602 111.43 410.062 112.125 410.719 112.625C411.375 113.125 412.266 113.375 413.391 113.375C414.141 113.375 414.766 113.203 415.266 112.859C415.766 112.5 416.164 112.008 416.461 111.383C416.758 110.742 416.969 110.008 417.094 109.18C417.219 108.352 417.281 107.461 417.281 106.508ZM442.055 93.6406V99.125H426.773V93.6406H442.055ZM429.984 87.3359H437.883V110.727C437.883 111.398 437.961 111.922 438.117 112.297C438.273 112.656 438.539 112.914 438.914 113.07C439.305 113.211 439.82 113.281 440.461 113.281C440.914 113.281 441.289 113.273 441.586 113.258C441.883 113.227 442.164 113.188 442.43 113.141V118.789C441.758 119.008 441.055 119.172 440.32 119.281C439.586 119.406 438.805 119.469 437.977 119.469C436.289 119.469 434.844 119.203 433.641 118.672C432.453 118.141 431.547 117.305 430.922 116.164C430.297 115.023 429.984 113.539 429.984 111.711V87.3359ZM453.539 93.6406V119H445.617V93.6406H453.539ZM445.148 87.1016C445.148 85.9766 445.555 85.0547 446.367 84.3359C447.18 83.6172 448.234 83.2578 449.531 83.2578C450.828 83.2578 451.883 83.6172 452.695 84.3359C453.508 85.0547 453.914 85.9766 453.914 87.1016C453.914 88.2266 453.508 89.1484 452.695 89.8672C451.883 90.5859 450.828 90.9453 449.531 90.9453C448.234 90.9453 447.18 90.5859 446.367 89.8672C445.555 89.1484 445.148 88.2266 445.148 87.1016ZM457.43 106.578V106.086C457.43 104.227 457.695 102.516 458.227 100.953C458.758 99.375 459.539 98.0078 460.57 96.8516C461.602 95.6953 462.875 94.7969 464.391 94.1562C465.906 93.5 467.656 93.1719 469.641 93.1719C471.641 93.1719 473.398 93.5 474.914 94.1562C476.445 94.7969 477.727 95.6953 478.758 96.8516C479.789 98.0078 480.57 99.375 481.102 100.953C481.633 102.516 481.898 104.227 481.898 106.086V106.578C481.898 108.422 481.633 110.133 481.102 111.711C480.57 113.273 479.789 114.641 478.758 115.812C477.727 116.969 476.453 117.867 474.938 118.508C473.422 119.148 471.672 119.469 469.688 119.469C467.703 119.469 465.945 119.148 464.414 118.508C462.883 117.867 461.602 116.969 460.57 115.812C459.539 114.641 458.758 113.273 458.227 111.711C457.695 110.133 457.43 108.422 457.43 106.578ZM465.328 106.086V106.578C465.328 107.531 465.398 108.422 465.539 109.25C465.68 110.078 465.914 110.805 466.242 111.43C466.57 112.039 467.016 112.516 467.578 112.859C468.141 113.203 468.844 113.375 469.688 113.375C470.516 113.375 471.203 113.203 471.75 112.859C472.312 112.516 472.758 112.039 473.086 111.43C473.414 110.805 473.648 110.078 473.789 109.25C473.93 108.422 474 107.531 474 106.578V106.086C474 105.164 473.93 104.297 473.789 103.484C473.648 102.656 473.414 101.93 473.086 101.305C472.758 100.664 472.312 100.164 471.75 99.8047C471.188 99.4453 470.484 99.2656 469.641 99.2656C468.812 99.2656 468.117 99.4453 467.555 99.8047C467.008 100.164 466.57 100.664 466.242 101.305C465.914 101.93 465.68 102.656 465.539 103.484C465.398 104.297 465.328 105.164 465.328 106.086ZM493.172 99.0547V119H485.273V93.6406H492.68L493.172 99.0547ZM492.234 105.453L490.383 105.5C490.383 103.562 490.617 101.836 491.086 100.32C491.555 98.7891 492.219 97.4922 493.078 96.4297C493.938 95.3672 494.961 94.5625 496.148 94.0156C497.352 93.4531 498.688 93.1719 500.156 93.1719C501.328 93.1719 502.398 93.3438 503.367 93.6875C504.352 94.0312 505.195 94.5859 505.898 95.3516C506.617 96.1172 507.164 97.1328 507.539 98.3984C507.93 99.6484 508.125 101.195 508.125 103.039V119H500.18V103.016C500.18 102 500.039 101.227 499.758 100.695C499.477 100.148 499.07 99.7734 498.539 99.5703C498.008 99.3672 497.359 99.2656 496.594 99.2656C495.781 99.2656 495.094 99.4219 494.531 99.7344C493.969 100.047 493.516 100.484 493.172 101.047C492.844 101.594 492.602 102.242 492.445 102.992C492.305 103.742 492.234 104.562 492.234 105.453Z" fill="black"/>
<path d="M1134 0H1348C1356.28 0 1363 6.71573 1363 15V148C1363 156.284 1356.28 163 1348 163H1134V0Z" fill="#69C8D9"/>
<path d="M1234.26 103.786H1262.74V109.357H1234.26V103.786ZM1239.96 114.929H1257.04V120.5H1239.96V114.929ZM1248.5 42.5C1240.95 42.5 1233.71 45.4349 1228.37 50.6592C1223.03 55.8834 1220.03 62.969 1220.03 70.3571C1219.84 74.4057 1220.63 78.4412 1222.34 82.1315C1224.05 85.8219 1226.64 89.0616 1229.88 91.5843C1232.73 94.175 1234.26 95.6514 1234.26 98.2143H1239.96C1239.96 93.0886 1236.8 90.2193 1233.72 87.4614C1231.06 85.4676 1228.94 82.8658 1227.55 79.8838C1226.15 76.9019 1225.53 73.6308 1225.72 70.3571C1225.72 64.4466 1228.12 58.7781 1232.39 54.5988C1236.67 50.4194 1242.46 48.0714 1248.5 48.0714C1254.54 48.0714 1260.33 50.4194 1264.61 54.5988C1268.88 58.7781 1271.28 64.4466 1271.28 70.3571C1271.47 73.6333 1270.84 76.9059 1269.44 79.888C1268.04 82.8701 1265.92 85.4706 1263.25 87.4614C1260.2 90.2471 1257.04 93.0329 1257.04 98.2143H1262.74C1262.74 95.6514 1264.25 94.175 1267.12 91.5564C1270.36 89.0381 1272.94 85.8031 1274.66 82.1176C1276.37 78.4321 1277.16 74.4014 1276.97 70.3571C1276.97 66.6989 1276.24 63.0765 1274.81 59.6967C1273.37 56.3169 1271.28 53.2459 1268.63 50.6592C1265.99 48.0724 1262.85 46.0205 1259.4 44.6205C1255.94 43.2205 1252.24 42.5 1248.5 42.5Z" fill="white"/>
</svg>
